<svg xmlns="http://www.w3.org/2000/svg" xmlns:xlink="http://www.w3.org/1999/xlink" width="377" zoomAndPan="magnify" viewBox="0 0 283.5 283.500005" height="377" preserveAspectRatio="xMidYMid meet" version="1.0"><defs><g/><clipPath id="851ea0ffdc"><path d="M 28.347656 28.347656 L 254.847656 28.347656 L 254.847656 254.847656 L 28.347656 254.847656 Z M 28.347656 28.347656 " clip-rule="nonzero"/></clipPath><clipPath id="f6af02b1bb"><path d="M 73.609375 88.621094 L 210.109375 88.621094 L 210.109375 194.839844 L 73.609375 194.839844 Z M 73.609375 88.621094 " clip-rule="nonzero"/></clipPath></defs><g clip-path="url(#851ea0ffdc)"><path fill="#00c2cb" d="M 141.597656 28.347656 C 79.050781 28.347656 28.347656 79.050781 28.347656 141.597656 C 28.347656 204.144531 79.050781 254.847656 141.597656 254.847656 C 204.144531 254.847656 254.847656 204.144531 254.847656 141.597656 C 254.847656 79.050781 204.144531 28.347656 141.597656 28.347656 " fill-opacity="1" fill-rule="nonzero"/></g><g fill="#ffffff" fill-opacity="1"><g transform="translate(70.99406, 215.123578)"><g><path d="M 12.53125 5.71875 L 12.171875 -0.515625 L 12.046875 -0.5625 L 8.609375 -2.140625 L 6.3125 2.875 L 1.78125 0.8125 L 9.921875 -17.015625 L 17.890625 -13.375 C 20.253906 -12.300781 21.832031 -10.929688 22.625 -9.265625 C 23.425781 -7.597656 23.375 -5.769531 22.46875 -3.78125 C 21.21875 -1.03125 19.269531 0.382812 16.625 0.46875 L 17.6875 8.0625 Z M 10.234375 -5.703125 L 13.671875 -4.125 C 14.660156 -3.675781 15.535156 -3.570312 16.296875 -3.8125 C 17.066406 -4.0625 17.664062 -4.648438 18.09375 -5.578125 C 18.507812 -6.503906 18.554688 -7.328125 18.234375 -8.046875 C 17.910156 -8.773438 17.253906 -9.363281 16.265625 -9.8125 L 12.828125 -11.390625 Z M 10.234375 -5.703125 "/></g></g></g><g fill="#ffffff" fill-opacity="1"><g transform="translate(95.252328, 225.536619)"><g><path d="M 20.6875 -10.84375 L 10.65625 -13.453125 L 9.671875 -9.671875 L 18.734375 -7.3125 L 17.765625 -3.53125 L 8.703125 -5.890625 L 7.703125 -2.0625 L 18.03125 0.625 L 17.046875 4.421875 L 1.890625 0.484375 L 6.8125 -18.484375 L 21.671875 -14.625 Z M 20.6875 -10.84375 "/></g></g></g><g fill="#ffffff" fill-opacity="1"><g transform="translate(119.540416, 231.319386)"><g><path d="M 12.75 -18.78125 C 14.195312 -18.664062 15.597656 -18.25 16.953125 -17.53125 C 18.304688 -16.8125 19.4375 -15.910156 20.34375 -14.828125 L 17.171875 -11.671875 C 16.609375 -12.503906 15.898438 -13.1875 15.046875 -13.71875 C 14.203125 -14.25 13.347656 -14.550781 12.484375 -14.625 C 10.929688 -14.75 9.585938 -14.304688 8.453125 -13.296875 C 7.328125 -12.296875 6.695312 -11 6.5625 -9.40625 C 6.425781 -7.769531 6.832031 -6.359375 7.78125 -5.171875 C 8.738281 -3.984375 9.992188 -3.328125 11.546875 -3.203125 C 12.347656 -3.128906 13.207031 -3.257812 14.125 -3.59375 C 15.050781 -3.9375 15.882812 -4.4375 16.625 -5.09375 L 19.28125 -1.765625 C 18.125 -0.785156 16.796875 -0.03125 15.296875 0.5 C 13.804688 1.03125 12.347656 1.238281 10.921875 1.125 C 7.984375 0.882812 5.613281 -0.269531 3.8125 -2.34375 C 2.019531 -4.425781 1.242188 -6.898438 1.484375 -9.765625 C 1.710938 -12.566406 2.898438 -14.832031 5.046875 -16.5625 C 7.203125 -18.289062 9.769531 -19.03125 12.75 -18.78125 Z M 12.75 -18.78125 "/></g></g></g><g fill="#ffffff" fill-opacity="1"><g transform="translate(144.542701, 232.657507)"><g><path d="M 6.921875 -0.359375 L 1.953125 -0.09375 L 0.9375 -19.65625 L 5.90625 -19.921875 Z M 6.921875 -0.359375 "/></g></g></g><g fill="#ffffff" fill-opacity="1"><g transform="translate(159.110148, 231.862261)"><g><path d="M -1.6875 -19.625 L 6.71875 -21.203125 C 9.164062 -21.660156 11.175781 -21.429688 12.75 -20.515625 C 14.332031 -19.597656 15.328125 -18.066406 15.734375 -15.921875 C 16.148438 -13.671875 15.796875 -11.796875 14.671875 -10.296875 C 13.546875 -8.796875 11.757812 -7.816406 9.3125 -7.359375 L 5.796875 -6.703125 L 6.8125 -1.28125 L 1.921875 -0.359375 Z M 3.921875 -16.703125 L 5.078125 -10.5625 L 8.34375 -11.171875 C 9.425781 -11.367188 10.207031 -11.785156 10.6875 -12.421875 C 11.175781 -13.066406 11.328125 -13.890625 11.140625 -14.890625 C 10.953125 -15.890625 10.515625 -16.59375 9.828125 -17 C 9.148438 -17.40625 8.269531 -17.507812 7.1875 -17.3125 Z M 3.921875 -16.703125 "/></g></g></g><g fill="#ffffff" fill-opacity="1"><g transform="translate(183.698941, 226.729086)"><g><path d="M 10.765625 -20.71875 L 1.046875 -17.109375 L 2.40625 -13.453125 L 11.1875 -16.703125 L 12.546875 -13.046875 L 3.765625 -9.796875 L 5.140625 -6.078125 L 15.15625 -9.78125 L 16.515625 -6.109375 L 1.828125 -0.671875 L -4.984375 -19.046875 L 9.40625 -24.390625 Z M 10.765625 -20.71875 "/></g></g></g><g fill="#ffffff" fill-opacity="1"><g transform="translate(206.331222, 217.570803)"><g/></g></g><g fill="#ffffff" fill-opacity="1"><g transform="translate(58.936939, 112.867727)"><g><path d="M -7.5 -15.328125 L -4.09375 -12.6875 L 1.203125 -19.53125 L 4.59375 -16.90625 L -0.703125 -10.0625 L 4.609375 -5.9375 L 1.203125 -1.5625 L -14.296875 -13.578125 L -4.875 -25.71875 L -1.484375 -23.09375 Z M -7.5 -15.328125 "/></g></g></g><g fill="#ffffff" fill-opacity="1"><g transform="translate(72.01841, 96.941398)"><g><path d="M -11.8125 -15.765625 L -7.734375 -19.53125 L 5.53125 -5.09375 L 1.453125 -1.328125 Z M -11.8125 -15.765625 "/></g></g></g><g fill="#ffffff" fill-opacity="1"><g transform="translate(80.600546, 88.532271)"><g><path d="M 7.203125 -27.53125 L 17.53125 -10.859375 L 13.640625 -8.453125 L 0.78125 -12.78125 L 6.28125 -3.890625 L 1.671875 -1.03125 L -8.65625 -17.703125 L -4.78125 -20.109375 L 8.078125 -15.78125 L 2.578125 -24.671875 Z M 7.203125 -27.53125 "/></g></g></g><g fill="#ffffff" fill-opacity="1"><g transform="translate(101.544816, 75.801716)"><g><path d="M -3.953125 -19.296875 L 4.890625 -22.0625 C 6.941406 -22.695312 8.878906 -22.878906 10.703125 -22.609375 C 12.535156 -22.335938 14.109375 -21.632812 15.421875 -20.5 C 16.734375 -19.363281 17.679688 -17.851562 18.265625 -15.96875 C 18.859375 -14.0625 18.9375 -12.269531 18.5 -10.59375 C 18.0625 -8.914062 17.164062 -7.445312 15.8125 -6.1875 C 14.46875 -4.925781 12.769531 -3.976562 10.71875 -3.34375 L 1.875 -0.578125 Z M 9.203125 -7.5 C 10.804688 -8 11.945312 -8.851562 12.625 -10.0625 C 13.3125 -11.28125 13.40625 -12.695312 12.90625 -14.3125 C 12.40625 -15.90625 11.53125 -17.003906 10.28125 -17.609375 C 9.03125 -18.222656 7.601562 -18.28125 6 -17.78125 L 2.65625 -16.734375 L 5.859375 -6.453125 Z M 9.203125 -7.5 "/></g></g></g><g fill="#ffffff" fill-opacity="1"><g transform="translate(126.226791, 69.077608)"><g/></g></g><g fill="#ffffff" fill-opacity="1"><g transform="translate(136.955849, 67.568957)"><g><path d="M 12.8125 -6.375 L 12.453125 0.640625 L 6.90625 0.359375 L 7.265625 -6.734375 L 0.4375 -19.609375 L 6.296875 -19.3125 L 10.546875 -11.296875 L 15.578125 -18.828125 L 20.9375 -18.5625 Z M 12.8125 -6.375 "/></g></g></g><g fill="#ffffff" fill-opacity="1"><g transform="translate(158.394839, 68.654012)"><g><path d="M 11.234375 3.78125 C 9.242188 3.1875 7.582031 2.234375 6.25 0.921875 C 4.925781 -0.390625 4.035156 -1.921875 3.578125 -3.671875 C 3.117188 -5.429688 3.164062 -7.242188 3.71875 -9.109375 C 4.28125 -10.972656 5.238281 -12.507812 6.59375 -13.71875 C 7.945312 -14.9375 9.535156 -15.726562 11.359375 -16.09375 C 13.191406 -16.457031 15.101562 -16.34375 17.09375 -15.75 C 19.082031 -15.15625 20.742188 -14.203125 22.078125 -12.890625 C 23.410156 -11.578125 24.304688 -10.039062 24.765625 -8.28125 C 25.222656 -6.53125 25.171875 -4.722656 24.609375 -2.859375 C 24.054688 -0.992188 23.101562 0.539062 21.75 1.75 C 20.394531 2.96875 18.800781 3.757812 16.96875 4.125 C 15.132812 4.488281 13.222656 4.375 11.234375 3.78125 Z M 12.546875 -0.625 C 13.492188 -0.34375 14.421875 -0.304688 15.328125 -0.515625 C 16.234375 -0.734375 17.03125 -1.179688 17.71875 -1.859375 C 18.414062 -2.546875 18.921875 -3.414062 19.234375 -4.46875 C 19.554688 -5.519531 19.613281 -6.515625 19.40625 -7.453125 C 19.207031 -8.398438 18.785156 -9.210938 18.140625 -9.890625 C 17.503906 -10.578125 16.710938 -11.0625 15.765625 -11.34375 C 14.816406 -11.625 13.894531 -11.65625 13 -11.4375 C 12.101562 -11.226562 11.304688 -10.78125 10.609375 -10.09375 C 9.921875 -9.414062 9.414062 -8.550781 9.09375 -7.5 C 8.78125 -6.445312 8.722656 -5.445312 8.921875 -4.5 C 9.128906 -3.5625 9.546875 -2.75 10.171875 -2.0625 C 10.804688 -1.382812 11.597656 -0.90625 12.546875 -0.625 Z M 12.546875 -0.625 "/></g></g></g><g fill="#ffffff" fill-opacity="1"><g transform="translate(182.825606, 76.347637)"><g><path d="M 9.21875 6.03125 C 6.726562 4.519531 5.203125 2.664062 4.640625 0.46875 C 4.078125 -1.71875 4.546875 -4.050781 6.046875 -6.53125 L 11.6875 -15.84375 L 16.4375 -12.984375 L 10.890625 -3.828125 C 9.265625 -1.140625 9.515625 0.84375 11.640625 2.125 C 13.753906 3.40625 15.625 2.703125 17.25 0.015625 L 22.796875 -9.140625 L 27.46875 -6.3125 L 21.828125 3 C 20.328125 5.476562 18.472656 6.976562 16.265625 7.5 C 14.054688 8.019531 11.707031 7.53125 9.21875 6.03125 Z M 9.21875 6.03125 "/></g></g></g><g fill="#ffffff" fill-opacity="1"><g transform="translate(203.234133, 89.068277)"><g><path d="M 11.140625 3.734375 L 9 1.609375 L 5.328125 5.296875 L 1.390625 1.390625 L 15.21875 -12.515625 L 21.578125 -6.203125 C 22.835938 -4.941406 23.722656 -3.640625 24.234375 -2.296875 C 24.742188 -0.960938 24.863281 0.335938 24.59375 1.609375 C 24.320312 2.890625 23.671875 4.050781 22.640625 5.09375 C 21.628906 6.101562 20.519531 6.75 19.3125 7.03125 C 18.101562 7.3125 16.847656 7.226562 15.546875 6.78125 L 14.203125 14.125 L 9.984375 9.9375 Z M 18.671875 1.125 C 19.316406 0.476562 19.609375 -0.222656 19.546875 -0.984375 C 19.492188 -1.742188 19.066406 -2.523438 18.265625 -3.328125 L 16.078125 -5.5 L 12.03125 -1.4375 L 14.21875 0.734375 C 15.019531 1.535156 15.800781 1.960938 16.5625 2.015625 C 17.320312 2.078125 18.023438 1.78125 18.671875 1.125 Z M 18.671875 1.125 "/></g></g></g><g fill="#ffffff" fill-opacity="1"><g transform="translate(219.187788, 106.028407)"><g/></g></g><g clip-path="url(#f6af02b1bb)"><path fill="#ffffff" d="M 191.335938 162.074219 C 182.4375 164.746094 170.964844 166.539062 158.25 167.023438 C 157.347656 164.773438 155.144531 163.179688 152.558594 163.179688 L 129.34375 163.179688 L 129.34375 166.5625 L 152.453125 166.5625 L 152.453125 169.167969 L 129.34375 169.167969 L 129.34375 173.261719 L 152.453125 173.261719 L 152.453125 175.867188 L 129.34375 175.867188 L 129.34375 178.8125 L 152.558594 178.8125 C 155.460938 178.8125 157.890625 176.804688 158.523438 174.109375 C 169.027344 173.523438 178.734375 172.1875 187.082031 170.273438 C 177.609375 185.191406 160.898438 195.097656 141.859375 195.097656 C 114.503906 195.097656 91.949219 174.652344 88.777344 148.273438 L 88.851562 148.300781 L 88.773438 148.269531 C 79.351562 144.90625 73.613281 140.449219 73.613281 135.558594 C 73.613281 130.070312 80.835938 125.132812 92.378906 121.667969 C 100.960938 119.089844 111.929688 117.335938 124.097656 116.777344 C 127.25 120.152344 134.523438 122.515625 142.992188 122.515625 C 154.347656 122.515625 163.554688 118.265625 163.554688 113.023438 C 163.554688 107.78125 154.347656 103.53125 142.992188 103.53125 C 134.148438 103.53125 126.609375 106.105469 123.703125 109.722656 C 113.773438 110.347656 104.585938 111.644531 96.632812 113.46875 C 106.105469 98.550781 122.816406 88.644531 141.859375 88.644531 C 169.210938 88.644531 191.765625 109.089844 194.941406 135.46875 L 194.863281 135.441406 L 194.941406 135.472656 C 204.363281 138.835938 210.101562 143.292969 210.101562 148.183594 C 210.101562 153.671875 202.882812 158.609375 191.335938 162.074219 " fill-opacity="1" fill-rule="nonzero"/></g></svg>